<?xml version="1.0" standalone="no"?>
<!DOCTYPE svg PUBLIC "-//W3C//DTD SVG 20010904//EN"
 "http://www.w3.org/TR/2001/REC-SVG-20010904/DTD/svg10.dtd">
<svg version="1.0" xmlns="http://www.w3.org/2000/svg"
 width="100.000000pt" height="100.000000pt" viewBox="0 0 100.000000 100.000000"
 preserveAspectRatio="xMidYMid meet">

<g transform="translate(0.000000,100.000000) scale(0.100000,-0.100000)"
fill="#000000" stroke="none">
<path d="M610 670 c-6 -11 -22 -32 -36 -47 l-26 -28 23 -5 c12 -3 24 -11 26
-17 7 -20 -44 -63 -72 -63 -15 0 -24 -4 -20 -10 3 -5 1 -10 -4 -10 -6 0 -11
-5 -11 -10 0 -6 7 -10 16 -8 9 2 21 -5 28 -14 9 -14 6 -22 -14 -42 -14 -14
-38 -27 -54 -30 -35 -6 -38 -9 -41 -38 -2 -13 -6 -31 -10 -40 -11 -28 14 -21
27 7 6 13 22 27 37 30 44 9 88 41 105 76 20 40 20 49 0 64 -15 10 -12 14 19
33 65 38 85 97 36 109 -16 5 -19 11 -14 34 8 33 0 38 -15 9z"/>
</g>
</svg>
